<svg width="674" height="613" viewBox="0 0 674 613" fill="none" xmlns="http://www.w3.org/2000/svg">
<path d="M550.678 598.642C564.101 572.585 678.591 34.879 673.853 19.8769C671.484 11.9811 662.799 2.50609 654.114 0.13734C644.639 -3.02099 534.097 48.3019 320.909 155.685C12.9718 311.233 2.70725 316.76 0.338471 340.448C-1.24069 355.45 2.70724 368.873 12.1822 376.769C31.1322 393.35 511.199 612.064 529.359 612.064C536.466 612.064 545.941 605.748 550.678 598.642ZM370.653 519.683C298.801 486.521 234.055 457.306 227.739 453.358C221.422 450.2 201.682 441.514 184.311 434.408C111.67 402.825 39.028 367.294 34.2906 359.398C19.2885 334.921 46.9239 317.55 333.543 174.635C518.305 82.254 632.795 29.3519 641.48 32.5103C649.376 35.6686 652.534 43.5644 650.166 54.6186C604.37 277.281 544.361 542.581 535.676 563.11C531.728 572.585 522.253 580.481 515.147 580.481C508.041 580.481 443.295 553.635 370.653 519.683Z" fill="url(#paint0_linear_1010_24)"/>
<defs>
<linearGradient id="paint0_linear_1010_24" x1="573" y1="586" x2="-8.99986" y2="82.5" gradientUnits="userSpaceOnUse">
<stop stop-color="#00B3FF"/>
<stop offset="1" stop-color="#002F99"/>
</linearGradient>
</defs>
</svg>
